<svg width="276" height="68" viewBox="0 0 276 68" fill="none" xmlns="http://www.w3.org/2000/svg">
<path d="M42.3047 30.5859L74.0625 57.1875L65.8594 67.3828L36.4453 43.0078C35.8203 44.0234 35.1562 45.0391 34.4531 46.0547C27.5781 55.1953 18.5938 62.1094 7.5 66.7969L0 55.6641C9.76562 51.6016 17.2656 45.8594 22.5 38.4375C27.7344 31.0156 30.3516 22.9688 30.3516 14.2969V8.32031H44.5312V16.0547C44.5312 21.0547 43.7891 25.8984 42.3047 30.5859Z" fill="url(#paint0_linear_223_532)"/>
<path d="M142.852 30.5859L174.609 57.1875L166.406 67.3828L136.992 43.0078C136.367 44.0234 135.703 45.0391 135 46.0547C128.125 55.1953 119.141 62.1094 108.047 66.7969L100.547 55.6641C110.312 51.6016 117.812 45.8594 123.047 38.4375C128.281 31.0156 130.898 22.9688 130.898 14.2969V8.32031H145.078V16.0547C145.078 21.0547 144.336 25.8984 142.852 30.5859Z" fill="url(#paint1_linear_223_532)"/>
<path d="M275.039 32.1094H237.656C234.531 32.1094 231.953 33.3594 229.922 35.8594C227.891 38.2812 226.875 41.0938 226.875 44.2969C226.875 46.9531 227.93 49.2578 230.039 51.2109C232.227 53.1641 234.766 54.1406 237.656 54.1406C240.703 54.1406 243.281 53.1641 245.391 51.2109C247.578 49.2578 248.672 46.9922 248.672 44.4141C248.672 42.4609 248.164 40.8203 247.148 39.4922L258.047 32.6953C261.562 35.8203 263.32 39.7266 263.32 44.4141C263.32 47.7734 262.617 50.8203 261.211 53.5547C259.805 56.2109 257.969 58.6328 255.703 60.8203C253.438 62.9297 250.781 64.5703 247.734 65.7422C244.688 66.9141 241.289 67.5 237.539 67.5C234.102 67.5 230.82 66.9141 227.695 65.7422C224.648 64.4922 221.992 62.8516 219.727 60.8203C217.383 58.5547 215.547 56.0547 214.219 53.3203C212.891 50.5859 212.227 47.6172 212.227 44.4141C212.227 41.2891 212.852 38.5156 214.102 36.0938C214.805 34.6875 215.703 33.3594 216.797 32.1094H200.156V19.4531H275.039V32.1094ZM258.281 16.1719H234.258C227.773 16.1719 221.016 14.4141 213.984 10.8984L217.617 0C224.258 2.1875 230.039 3.28125 234.961 3.28125H258.281V16.1719Z" fill="url(#paint2_linear_223_532)"/>
<defs>
<linearGradient id="paint0_linear_223_532" x1="275.195" y1="34.1562" x2="0.195319" y2="34.1562" gradientUnits="userSpaceOnUse">
<stop stop-color="#ECC94B"/>
<stop offset="1" stop-color="#ED8936"/>
</linearGradient>
<linearGradient id="paint1_linear_223_532" x1="275.195" y1="34.1562" x2="0.195319" y2="34.1562" gradientUnits="userSpaceOnUse">
<stop stop-color="#ECC94B"/>
<stop offset="1" stop-color="#ED8936"/>
</linearGradient>
<linearGradient id="paint2_linear_223_532" x1="275.195" y1="34.1562" x2="0.195319" y2="34.1562" gradientUnits="userSpaceOnUse">
<stop stop-color="#ECC94B"/>
<stop offset="1" stop-color="#ED8936"/>
</linearGradient>
</defs>
</svg>
